# xmcd CD database file
#
# Track frame offsets:
#	187
#	18857
#	39585
#	58205
#
# Disc length: 1052 seconds
#
# Revision: 0
# Processed by: cddbd v1.5.1PL0 Copyright (c) Steve Scherf et al.
# Submitted via: CDex 1.51
#
DISCID=2c041a04
DTITLE=酒井　法子 - モンタージュ
DYEAR=1991
DGENRE=JPop
TTITLE0=モンタージュ
TTITLE1=WE NEED LOVE
TTITLE2=モンタージュ（カラオケ）
TTITLE3=WE NEED LOVE（カラオケ）
EXTD=YEAR: 1991
EXTT0=
EXTT1=
EXTT2=
EXTT3=
PLAYORDER=
